# Blender v2.75 (sub 0) OBJ File: ''
# www.blender.org
mtllib bac.mtl
o Cube
v 3.000000 3.000000 -1.000000
v 3.000000 -3.000000 -1.000000
v -3.000000 -2.999999 -1.000000
v -2.999999 3.000001 -1.000000
v 3.000002 2.999999 1.000000
v 2.999998 -3.000001 1.000000
v -3.000001 -2.999999 1.000000
v -3.000000 3.000000 1.000000
v 2.337955 2.337953 1.080368
v 2.337953 -2.337955 1.080368
v -2.337955 -2.337953 1.080368
v -2.337954 2.337955 1.080368
v 2.337955 2.337953 1.036383
v 2.337953 -2.337955 1.036383
v -2.337955 -2.337953 1.036383
v -2.337954 2.337955 1.036383
vt 0.463234 0.566282
vt 0.059109 0.566282
vt 0.059109 0.970407
vt 0.983126 0.986731
vt 0.877260 0.880864
vt 0.877260 0.133149
vt 0.827519 0.018505
vt 0.827519 0.809133
vt 0.563976 0.809133
vt 0.563976 0.018505
vt 0.867422 0.144497
vt 0.860508 0.144497
vt 0.860508 0.879572
vt 0.983126 0.027282
vt 0.007734 0.546954
vt 0.007734 0.015546
vt 0.539141 0.015546
vt 0.867422 0.879572
vt 0.463234 0.970406
vt 0.539141 0.546953
vn 0.000000 0.000000 -1.000000
vn -0.000000 -0.120500 0.992700
vn 1.000000 -0.000000 0.000000
vn -0.000000 -1.000000 0.000000
vn -1.000000 0.000000 -0.000000
vn 0.000000 1.000000 0.000000
vn 0.120500 -0.000000 0.992700
vn -0.120500 0.000000 0.992700
vn 0.000000 0.120500 0.992700
vn -0.000000 0.000000 1.000000
usemtl Material
s off
f 2/1/1 3/2/1 4/3/1
f 6/4/2 10/5/2 11/6/2
f 5/7/3 6/8/3 2/9/3
f 6/7/4 7/8/4 3/9/4
f 3/9/5 7/8/5 8/7/5
f 1/10/6 4/9/6 8/8/6
f 9/11/5 13/12/5 14/13/5
f 6/14/7 5/4/7 9/5/7
f 7/4/8 11/5/8 12/6/8
f 8/4/9 12/5/9 9/6/9
f 16/15/10 15/16/10 14/17/10
f 11/18/3 15/13/3 16/12/3
f 12/18/4 16/13/4 13/12/4
f 10/11/6 14/12/6 15/13/6
f 1/19/1 2/1/1 4/3/1
f 7/14/2 6/4/2 11/6/2
f 1/10/3 5/7/3 2/9/3
f 2/10/4 6/7/4 3/9/4
f 4/10/5 3/9/5 8/7/5
f 5/7/6 1/10/6 8/8/6
f 10/18/5 9/11/5 14/13/5
f 10/6/7 6/14/7 9/5/7
f 8/14/8 7/4/8 12/6/8
f 5/14/9 8/4/9 9/6/9
f 13/20/10 16/15/10 14/17/10
f 12/11/3 11/18/3 16/12/3
f 9/11/4 12/18/4 13/12/4
f 11/18/6 10/11/6 15/13/6
